<?xml version="1.0" encoding="UTF-8" standalone="no"?>
<!-- Created with Inkscape (http://www.inkscape.org/) -->

<svg
   xmlns:dc="http://purl.org/dc/elements/1.1/"
   xmlns:cc="http://creativecommons.org/ns#"
   xmlns:rdf="http://www.w3.org/1999/02/22-rdf-syntax-ns#"
   xmlns:svg="http://www.w3.org/2000/svg"
   xmlns="http://www.w3.org/2000/svg"
   xmlns:sodipodi="http://sodipodi.sourceforge.net/DTD/sodipodi-0.dtd"
   xmlns:inkscape="http://www.inkscape.org/namespaces/inkscape"
   width="21.703056mm"
   height="21.703056mm"
   viewBox="0 0 21.703056 21.703056"
   version="1.1"
   id="svg8"
   inkscape:version="0.92.2 (5c3e80d, 2017-08-06)"
   sodipodi:docname="logo_white_bg.svg">
  <title
     id="title1354">Logo white bg</title>
  <defs
     id="defs2">
    <clipPath
       id="clipPath851"
       clipPathUnits="userSpaceOnUse">
      <path
         inkscape:connector-curvature="0"
         id="path849"
         d="m 1898.89,7483.82 -325.44,-230.21 v 230.21 z" />
    </clipPath>
    <linearGradient
       id="linearGradient857"
       spreadMethod="pad"
       gradientTransform="matrix(1844.63,-27.8085,-27.8085,-1844.63,1522.76,7371.93)"
       gradientUnits="userSpaceOnUse"
       y2="0"
       x2="1"
       y1="0"
       x1="0">
      <stop
         id="stop853"
         offset="0"
         style="stop-opacity:1;stop-color:#57c7c5" />
      <stop
         id="stop855"
         offset="1"
         style="stop-opacity:1;stop-color:#23255f" />
    </linearGradient>
    <clipPath
       id="clipPath867"
       clipPathUnits="userSpaceOnUse">
      <path
         inkscape:connector-curvature="0"
         id="path865"
         d="m 2527.72,7122.14 v -222.87 l -552.22,390.46 v -148.09 l 429.23,-312.13 -412.31,-299.98 h -57.3 c -199.75,0 -361.67,161.93 -361.67,361.68 v 222.87 l 552.03,-390.45 v 147.89 l -429.04,312.33 412.31,299.97 h 57.3 c 199.75,0 361.67,-161.93 361.67,-361.68 z" />
    </clipPath>
    <linearGradient
       id="linearGradient873"
       spreadMethod="pad"
       gradientTransform="matrix(1844.63,-27.8085,-27.8085,-1844.63,1517.37,7014.71)"
       gradientUnits="userSpaceOnUse"
       y2="0"
       x2="1"
       y1="0"
       x1="0">
      <stop
         id="stop869"
         offset="0"
         style="stop-opacity:1;stop-color:#57c7c5" />
      <stop
         id="stop871"
         offset="1"
         style="stop-opacity:1;stop-color:#23255f" />
    </linearGradient>
    <clipPath
       id="clipPath883"
       clipPathUnits="userSpaceOnUse">
      <path
         inkscape:connector-curvature="0"
         id="path881"
         d="m 2202.09,6529.53 325.63,230.21 v -230.21 z" />
    </clipPath>
    <linearGradient
       id="linearGradient889"
       spreadMethod="pad"
       gradientTransform="matrix(1844.63,-27.8085,-27.8085,-1844.63,1511.99,6657.5)"
       gradientUnits="userSpaceOnUse"
       y2="0"
       x2="1"
       y1="0"
       x1="0">
      <stop
         id="stop885"
         offset="0"
         style="stop-opacity:1;stop-color:#57c7c5" />
      <stop
         id="stop887"
         offset="1"
         style="stop-opacity:1;stop-color:#23255f" />
    </linearGradient>
    <clipPath
       id="clipPath915"
       clipPathUnits="userSpaceOnUse">
      <path
         inkscape:connector-curvature="0"
         id="path913"
         d="m 1898.89,9983.76 -325.44,-230.21 v 230.21 z" />
    </clipPath>
    <linearGradient
       id="linearGradient921"
       spreadMethod="pad"
       gradientTransform="matrix(1844.63,-27.8085,-27.8085,-1844.63,1522.76,9871.87)"
       gradientUnits="userSpaceOnUse"
       y2="0"
       x2="1"
       y1="0"
       x1="0">
      <stop
         id="stop917"
         offset="0"
         style="stop-opacity:1;stop-color:#57c7c5" />
      <stop
         id="stop919"
         offset="1"
         style="stop-opacity:1;stop-color:#23255f" />
    </linearGradient>
    <clipPath
       id="clipPath931"
       clipPathUnits="userSpaceOnUse">
      <path
         inkscape:connector-curvature="0"
         id="path929"
         d="m 2527.72,9622.08 v -222.87 l -552.22,390.46 v -148.08 l 429.23,-312.14 -412.31,-299.97 h -57.3 c -199.75,0 -361.67,161.92 -361.67,361.67 v 222.87 l 552.03,-390.45 v 147.89 l -429.04,312.33 412.31,299.97 h 57.3 c 199.75,0 361.67,-161.93 361.67,-361.68 z" />
    </clipPath>
    <linearGradient
       id="linearGradient937"
       spreadMethod="pad"
       gradientTransform="matrix(1844.63,-27.8085,-27.8085,-1844.63,1517.37,9514.66)"
       gradientUnits="userSpaceOnUse"
       y2="0"
       x2="1"
       y1="0"
       x1="0">
      <stop
         id="stop933"
         offset="0"
         style="stop-opacity:1;stop-color:#57c7c5" />
      <stop
         id="stop935"
         offset="1"
         style="stop-opacity:1;stop-color:#23255f" />
    </linearGradient>
    <clipPath
       id="clipPath947"
       clipPathUnits="userSpaceOnUse">
      <path
         inkscape:connector-curvature="0"
         id="path945"
         d="m 2202.09,9029.48 325.63,230.21 v -230.21 z" />
    </clipPath>
    <linearGradient
       id="linearGradient953"
       spreadMethod="pad"
       gradientTransform="matrix(1844.63,-27.8085,-27.8085,-1844.63,1511.99,9157.44)"
       gradientUnits="userSpaceOnUse"
       y2="0"
       x2="1"
       y1="0"
       x1="0">
      <stop
         id="stop949"
         offset="0"
         style="stop-opacity:1;stop-color:#57c7c5" />
      <stop
         id="stop951"
         offset="1"
         style="stop-opacity:1;stop-color:#23255f" />
    </linearGradient>
    <clipPath
       id="clipPath985"
       clipPathUnits="userSpaceOnUse">
      <path
         inkscape:connector-curvature="0"
         id="path983"
         d="m 3078.37,4655.52 c -28.03,90.95 -49.57,165.66 -62.11,217.77 h -1.8 c -12.75,-57.42 -34.81,-136.23 -58.41,-217.77 z m -148.44,-113.85 -33.21,-108.13 h -146.64 l 173.73,540.84 h 193.37 l 180.77,-540.84 h -157.11 l -34.95,108.13 z" />
    </clipPath>
    <linearGradient
       id="linearGradient991"
       spreadMethod="pad"
       gradientTransform="matrix(6030.47,314.633,314.633,-6030.47,3125.83,4704.74)"
       gradientUnits="userSpaceOnUse"
       y2="0"
       x2="1"
       y1="0"
       x1="0">
      <stop
         id="stop987"
         offset="0"
         style="stop-opacity:1;stop-color:#57c7c5" />
      <stop
         id="stop989"
         offset="1"
         style="stop-opacity:1;stop-color:#23255f" />
    </linearGradient>
    <clipPath
       id="clipPath1001"
       clipPathUnits="userSpaceOnUse">
      <path
         inkscape:connector-curvature="0"
         id="path999"
         d="m 3347.77,4433.54 v 540.84 h 180.91 c 59.09,-121.4 150,-297.28 172.96,-361.87 h 2.38 c -6.08,55.43 -7.1,151.07 -7.1,238.01 v 123.86 h 136.63 v -540.84 h -172.23 c -48.28,99.24 -154.52,312.72 -179.86,381.86 h -1.97 c 4.73,-49.08 5.5,-156.62 5.5,-252.23 v -129.63 z" />
    </clipPath>
    <linearGradient
       id="linearGradient1007"
       spreadMethod="pad"
       gradientTransform="matrix(6030.47,314.633,314.633,-6030.47,3127.13,4679.78)"
       gradientUnits="userSpaceOnUse"
       y2="0"
       x2="1"
       y1="0"
       x1="0">
      <stop
         id="stop1003"
         offset="0"
         style="stop-opacity:1;stop-color:#57c7c5" />
      <stop
         id="stop1005"
         offset="1"
         style="stop-opacity:1;stop-color:#23255f" />
    </linearGradient>
    <clipPath
       id="clipPath1017"
       clipPathUnits="userSpaceOnUse">
      <path
         inkscape:connector-curvature="0"
         id="path1015"
         d="m 4155.42,4616.38 c 0,-129.16 -43.16,-191.1 -178.43,-191.1 -26.34,0 -59.98,2.19 -78.19,7.07 v 110.92 c 10.44,-1.37 33.63,-2.73 49.32,-2.73 48.22,0 57.29,29.53 57.29,67.2 v 366.64 h 150.01 z" />
    </clipPath>
    <linearGradient
       id="linearGradient1023"
       spreadMethod="pad"
       gradientTransform="matrix(6030.47,314.633,314.633,-6030.47,3128.45,4654.54)"
       gradientUnits="userSpaceOnUse"
       y2="0"
       x2="1"
       y1="0"
       x1="0">
      <stop
         id="stop1019"
         offset="0"
         style="stop-opacity:1;stop-color:#57c7c5" />
      <stop
         id="stop1021"
         offset="1"
         style="stop-opacity:1;stop-color:#23255f" />
    </linearGradient>
    <clipPath
       id="clipPath1033"
       clipPathUnits="userSpaceOnUse">
      <path
         inkscape:connector-curvature="0"
         id="path1031"
         d="m 4513.96,4655.52 c -28.04,90.95 -49.57,165.66 -62.11,217.77 h -1.81 c -12.74,-57.42 -34.8,-136.23 -58.4,-217.77 z m -148.45,-113.85 -33.21,-108.13 h -146.64 l 173.74,540.84 h 193.37 l 180.77,-540.84 h -157.11 l -34.95,108.13 z" />
    </clipPath>
    <linearGradient
       id="linearGradient1039"
       spreadMethod="pad"
       gradientTransform="matrix(6030.47,314.633,314.633,-6030.47,3129.73,4630.05)"
       gradientUnits="userSpaceOnUse"
       y2="0"
       x2="1"
       y1="0"
       x1="0">
      <stop
         id="stop1035"
         offset="0"
         style="stop-opacity:1;stop-color:#57c7c5" />
      <stop
         id="stop1037"
         offset="1"
         style="stop-opacity:1;stop-color:#23255f" />
    </linearGradient>
    <clipPath
       id="clipPath1049"
       clipPathUnits="userSpaceOnUse">
      <path
         inkscape:connector-curvature="0"
         id="path1047"
         d="m 4891.93,4596.43 c 9.75,-48.39 44.01,-68.59 97.23,-68.59 50.43,0 73.34,17.97 73.34,50.82 0,37.17 -24.51,51.43 -110.84,71.86 -157.5,37.77 -190.02,95.37 -190.02,168.04 0,92.54 68.38,165.32 213.44,165.32 154,0 216.38,-78.99 224.04,-163.15 H 5052.6 c -4.32,29.24 -19.42,60.31 -78.64,60.31 -38.12,0 -61.58,-14.63 -61.58,-45.5 0,-30.71 20.2,-42.82 104.18,-63.07 164.4,-40.37 198.3,-99.92 198.3,-177.09 0,-101.52 -77.98,-171.31 -233.28,-171.31 -146.4,0 -224.65,68.83 -236.99,172.36 z" />
    </clipPath>
    <linearGradient
       id="linearGradient1055"
       spreadMethod="pad"
       gradientTransform="matrix(6030.47,314.633,314.633,-6030.47,3130.9,4607.53)"
       gradientUnits="userSpaceOnUse"
       y2="0"
       x2="1"
       y1="0"
       x1="0">
      <stop
         id="stop1051"
         offset="0"
         style="stop-opacity:1;stop-color:#57c7c5" />
      <stop
         id="stop1053"
         offset="1"
         style="stop-opacity:1;stop-color:#23255f" />
    </linearGradient>
    <clipPath
       id="clipPath1065"
       clipPathUnits="userSpaceOnUse">
      <path
         inkscape:connector-curvature="0"
         id="path1063"
         d="m 5418.85,4706.12 c 0,-100.27 35.68,-170.82 117.46,-170.82 86.78,0 115.68,75.94 115.68,168.05 0,98.79 -31.38,169.29 -117.83,169.29 -80.94,0 -115.31,-65.25 -115.31,-166.52 z m 387.69,-1.4 c 0,-152.45 -92.11,-280.65 -275.15,-280.65 -179.34,0 -267.5,126.17 -267.5,279.69 0,156.27 97.32,280.12 275.56,280.12 167.58,0 267.09,-116.08 267.09,-279.16 z" />
    </clipPath>
    <linearGradient
       id="linearGradient1071"
       spreadMethod="pad"
       gradientTransform="matrix(6030.47,314.633,314.633,-6030.47,3132.41,4578.59)"
       gradientUnits="userSpaceOnUse"
       y2="0"
       x2="1"
       y1="0"
       x1="0">
      <stop
         id="stop1067"
         offset="0"
         style="stop-opacity:1;stop-color:#57c7c5" />
      <stop
         id="stop1069"
         offset="1"
         style="stop-opacity:1;stop-color:#23255f" />
    </linearGradient>
    <clipPath
       id="clipPath1081"
       clipPathUnits="userSpaceOnUse">
      <path
         inkscape:connector-curvature="0"
         id="path1079"
         d="m 5886.88,4974.38 h 399.16 v -113.84 h -252.07 v -109.73 h 235.98 v -114.26 h -235.98 v -203.01 h -147.09 z" />
    </clipPath>
    <linearGradient
       id="linearGradient1087"
       spreadMethod="pad"
       gradientTransform="matrix(6030.47,314.633,314.633,-6030.47,3133.57,4556.47)"
       gradientUnits="userSpaceOnUse"
       y2="0"
       x2="1"
       y1="0"
       x1="0">
      <stop
         id="stop1083"
         offset="0"
         style="stop-opacity:1;stop-color:#57c7c5" />
      <stop
         id="stop1085"
         offset="1"
         style="stop-opacity:1;stop-color:#23255f" />
    </linearGradient>
    <clipPath
       id="clipPath1097"
       clipPathUnits="userSpaceOnUse">
      <path
         inkscape:connector-curvature="0"
         id="path1095"
         d="m 6494.79,4860.54 h -156.54 v 113.84 h 462.31 v -113.84 h -155.35 v -427 h -150.42 z" />
    </clipPath>
    <linearGradient
       id="linearGradient1103"
       spreadMethod="pad"
       gradientTransform="matrix(6030.47,314.633,314.633,-6030.47,3135.01,4528.83)"
       gradientUnits="userSpaceOnUse"
       y2="0"
       x2="1"
       y1="0"
       x1="0">
      <stop
         id="stop1099"
         offset="0"
         style="stop-opacity:1;stop-color:#57c7c5" />
      <stop
         id="stop1101"
         offset="1"
         style="stop-opacity:1;stop-color:#23255f" />
    </linearGradient>
    <clipPath
       id="clipPath1113"
       clipPathUnits="userSpaceOnUse">
      <path
         inkscape:connector-curvature="0"
         id="path1111"
         d="m 1898.89,5181.11 -325.44,-230.2 v 230.2 z" />
    </clipPath>
    <linearGradient
       id="linearGradient1119"
       spreadMethod="pad"
       gradientTransform="matrix(1844.63,-27.8085,-27.8085,-1844.63,1522.76,5069.23)"
       gradientUnits="userSpaceOnUse"
       y2="0"
       x2="1"
       y1="0"
       x1="0">
      <stop
         id="stop1115"
         offset="0"
         style="stop-opacity:1;stop-color:#57c7c5" />
      <stop
         id="stop1117"
         offset="1"
         style="stop-opacity:1;stop-color:#23255f" />
    </linearGradient>
    <clipPath
       id="clipPath1129"
       clipPathUnits="userSpaceOnUse">
      <path
         inkscape:connector-curvature="0"
         id="path1127"
         d="m 2527.72,4819.44 v -222.87 l -552.22,390.45 v -148.08 l 429.23,-312.14 -412.31,-299.97 h -57.3 c -199.75,0 -361.67,161.93 -361.67,361.67 v 222.88 l 552.03,-390.46 v 147.9 l -429.04,312.32 412.31,299.97 h 57.3 c 199.75,0 361.67,-161.92 361.67,-361.67 z" />
    </clipPath>
    <linearGradient
       id="linearGradient1135"
       spreadMethod="pad"
       gradientTransform="matrix(1844.63,-27.8085,-27.8085,-1844.63,1517.37,4712.01)"
       gradientUnits="userSpaceOnUse"
       y2="0"
       x2="1"
       y1="0"
       x1="0">
      <stop
         id="stop1131"
         offset="0"
         style="stop-opacity:1;stop-color:#57c7c5" />
      <stop
         id="stop1133"
         offset="1"
         style="stop-opacity:1;stop-color:#23255f" />
    </linearGradient>
    <clipPath
       id="clipPath1145"
       clipPathUnits="userSpaceOnUse">
      <path
         inkscape:connector-curvature="0"
         id="path1143"
         d="m 2202.09,4226.83 325.63,230.21 v -230.21 z" />
    </clipPath>
    <linearGradient
       id="linearGradient1151"
       spreadMethod="pad"
       gradientTransform="matrix(1844.63,-27.8085,-27.8085,-1844.63,1511.99,4354.79)"
       gradientUnits="userSpaceOnUse"
       y2="0"
       x2="1"
       y1="0"
       x1="0">
      <stop
         id="stop1147"
         offset="0"
         style="stop-opacity:1;stop-color:#57c7c5" />
      <stop
         id="stop1149"
         offset="1"
         style="stop-opacity:1;stop-color:#23255f" />
    </linearGradient>
  </defs>
  <sodipodi:namedview
     id="base"
     pagecolor="#ffffff"
     bordercolor="#666666"
     borderopacity="1.0"
     inkscape:pageopacity="0.0"
     inkscape:pageshadow="2"
     inkscape:zoom="0.7"
     inkscape:cx="261.33805"
     inkscape:cy="-513.06723"
     inkscape:document-units="mm"
     inkscape:current-layer="g825"
     showgrid="false"
     inkscape:window-width="5160"
     inkscape:window-height="2066"
     inkscape:window-x="2869"
     inkscape:window-y="-11"
     inkscape:window-maximized="1" />
  <metadata
     id="metadata5">
    <rdf:RDF>
      <cc:Work
         rdf:about="">
        <dc:format>image/svg+xml</dc:format>
        <dc:type
           rdf:resource="http://purl.org/dc/dcmitype/StillImage" />
        <dc:title>Logo white bg</dc:title>
      </cc:Work>
    </rdf:RDF>
  </metadata>
  <g
     inkscape:label="Layer 1"
     inkscape:groupmode="layer"
     id="layer1"
     transform="translate(-36.742293,-63.429254)">
    <g
       transform="matrix(0.2274286,0,0,-0.2274286,0.95753952,290.48851)"
       inkscape:label="ink_ext_XXXXXX"
       id="g823">
      <g
         transform="scale(0.1)"
         id="g825">
        <g
           id="g909">
          <g
             clip-path="url(#clipPath915)"
             id="g911">
            <path
               inkscape:connector-curvature="0"
               id="path923"
               style="fill:url(#linearGradient921);fill-opacity:1;fill-rule:nonzero;stroke:none"
               d="m 1898.89,9983.76 -325.44,-230.21 v 230.21 z" />
          </g>
        </g>
        <g
           id="g925">
          <g
             clip-path="url(#clipPath931)"
             id="g927">
            <path
               inkscape:connector-curvature="0"
               id="path939"
               style="fill:url(#linearGradient937);fill-opacity:1;fill-rule:nonzero;stroke:none"
               d="m 2527.72,9622.08 v -222.87 l -552.22,390.46 v -148.08 l 429.23,-312.14 -412.31,-299.97 h -57.3 c -199.75,0 -361.67,161.92 -361.67,361.67 v 222.87 l 552.03,-390.45 v 147.89 l -429.04,312.33 412.31,299.97 h 57.3 c 199.75,0 361.67,-161.93 361.67,-361.68" />
          </g>
        </g>
        <g
           id="g941">
          <g
             clip-path="url(#clipPath947)"
             id="g943">
            <path
               inkscape:connector-curvature="0"
               id="path955"
               style="fill:url(#linearGradient953);fill-opacity:1;fill-rule:nonzero;stroke:none"
               d="m 2202.09,9029.48 325.63,230.21 v -230.21 z" />
          </g>
        </g>
      </g>
    </g>
  </g>
</svg>
